<svg width="802" height="191" viewBox="0 0 802 191" fill="none" xmlns="http://www.w3.org/2000/svg">
<g clip-path="url(#clip0_596_5)">
<rect x="18" y="5" width="180" height="180" rx="90" fill="#EE79AA"/>
<circle cx="108" cy="95" r="80" stroke="white" stroke-width="20"/>
<path d="M111.16 49.68C118.44 49.68 124.6 50.92 129.64 53.4C134.68 55.8 138.52 59.24 141.16 63.72C143.8 68.12 145.12 73.36 145.12 79.44C145.12 83.04 144.56 86.68 143.44 90.36C142.4 93.96 140.68 97.24 138.28 100.2C135.96 103.16 132.8 105.56 128.8 107.4C124.88 109.16 120.04 110.04 114.28 110.04H101.8V138H84.4V49.68H111.16ZM114.16 93.12C116.8 93.12 119 92.68 120.76 91.8C122.52 90.84 123.88 89.68 124.84 88.32C125.88 86.88 126.6 85.4 127 83.88C127.48 82.36 127.72 81.04 127.72 79.92C127.72 79.04 127.56 77.88 127.24 76.44C127 74.92 126.44 73.4 125.56 71.88C124.68 70.36 123.32 69.08 121.48 68.04C119.72 67 117.32 66.48 114.28 66.48H101.8V93.12H114.16Z" fill="white"/>
</g>
<path d="M260.4 134.8C254.3 134.8 248.75 133.6 243.75 131.2C238.85 128.7 234.95 124.9 232.05 119.8C229.15 114.7 227.7 108.2 227.7 100.3C227.7 92.9 229.2 86.5 232.2 81.1C235.2 75.7 239.15 71.55 244.05 68.65C248.95 65.65 254.15 64.15 259.65 64.15C266.15 64.15 271.05 65.25 274.35 67.45C277.75 69.55 280.55 71.9 282.75 74.5L281.85 77.05L283.8 67.45H303.3V133H282.3V118.75L283.95 123.25C283.75 123.25 283.15 123.85 282.15 125.05C281.15 126.15 279.65 127.5 277.65 129.1C275.75 130.6 273.35 131.9 270.45 133C267.65 134.2 264.3 134.8 260.4 134.8ZM266.4 117.7C268.9 117.7 271.15 117.35 273.15 116.65C275.15 115.85 276.9 114.75 278.4 113.35C279.9 111.85 281.2 110 282.3 107.8V91.75C281.5 89.55 280.3 87.7 278.7 86.2C277.1 84.6 275.2 83.4 273 82.6C270.8 81.7 268.35 81.25 265.65 81.25C262.65 81.25 259.85 82.05 257.25 83.65C254.75 85.15 252.75 87.25 251.25 89.95C249.75 92.65 249 95.75 249 99.25C249 102.75 249.8 105.9 251.4 108.7C253 111.5 255.1 113.7 257.7 115.3C260.4 116.9 263.3 117.7 266.4 117.7ZM324.939 67.45H345.939V133H324.939V67.45ZM324.489 44.2C324.489 41.1 325.689 38.55 328.089 36.55C330.589 34.55 333.239 33.55 336.039 33.55C338.839 33.55 341.389 34.55 343.689 36.55C346.089 38.55 347.289 41.1 347.289 44.2C347.289 47.3 346.089 49.85 343.689 51.85C341.389 53.75 338.839 54.7 336.039 54.7C333.239 54.7 330.589 53.75 328.089 51.85C325.689 49.85 324.489 47.3 324.489 44.2ZM386.616 67.45L388.266 79L387.966 78.1C390.566 73.7 393.816 70.3 397.716 67.9C401.616 65.4 406.316 64.15 411.816 64.15C415.416 64.15 418.566 64.65 421.266 65.65C424.066 66.65 426.416 68.15 428.316 70.15C430.216 72.05 431.516 74.55 432.216 77.65L431.466 77.8C434.266 73.7 437.616 70.4 441.516 67.9C445.516 65.4 449.666 64.15 453.966 64.15C460.466 64.15 465.616 66 469.416 69.7C473.316 73.3 475.316 78 475.416 83.8V133H454.566V92.5C454.466 89.6 454.016 87.25 453.216 85.45C452.416 83.55 450.566 82.5 447.666 82.3C444.266 82.3 441.366 83.5 438.966 85.9C436.666 88.2 434.916 91.2 433.716 94.9C432.616 98.5 432.066 102.25 432.066 106.15V133H411.066V92.5C410.966 89.6 410.416 87.25 409.416 85.45C408.516 83.55 406.616 82.5 403.716 82.3C400.416 82.3 397.616 83.5 395.316 85.9C393.116 88.2 391.416 91.15 390.216 94.75C389.116 98.35 388.566 102.05 388.566 105.85V133H367.566V67.45H386.616ZM529.308 134.8C521.308 134.8 514.508 133.3 508.908 130.3C503.408 127.3 499.208 123.15 496.308 117.85C493.408 112.55 491.958 106.45 491.958 99.55C491.958 92.95 493.658 87 497.058 81.7C500.458 76.4 505.008 72.2 510.708 69.1C516.408 65.9 522.758 64.3 529.758 64.3C539.158 64.3 546.858 67.05 552.858 72.55C558.958 77.95 562.908 85.8 564.708 96.1L513.708 112.3L509.058 100.9L545.958 88.45L541.608 90.4C540.808 87.8 539.358 85.55 537.258 83.65C535.258 81.65 532.208 80.65 528.108 80.65C525.008 80.65 522.258 81.4 519.858 82.9C517.558 84.3 515.758 86.35 514.458 89.05C513.258 91.65 512.658 94.75 512.658 98.35C512.658 102.45 513.408 105.9 514.908 108.7C516.408 111.4 518.458 113.45 521.058 114.85C523.658 116.25 526.558 116.95 529.758 116.95C532.058 116.95 534.258 116.55 536.358 115.75C538.558 114.95 540.708 113.9 542.808 112.6L552.108 128.2C548.608 130.2 544.808 131.8 540.708 133C536.708 134.2 532.908 134.8 529.308 134.8ZM599.018 67.45L600.668 79.15L600.368 78.1C602.668 74 605.918 70.7 610.118 68.2C614.318 65.6 619.468 64.3 625.568 64.3C631.768 64.3 636.918 66.15 641.018 69.85C645.218 73.45 647.368 78.15 647.468 83.95V133H626.468V91.75C626.368 88.85 625.568 86.55 624.068 84.85C622.668 83.05 620.268 82.15 616.868 82.15C613.668 82.15 610.868 83.2 608.468 85.3C606.068 87.4 604.218 90.25 602.918 93.85C601.618 97.45 600.968 101.6 600.968 106.3V133H579.968V67.45H599.018ZM675.18 38.65H696.18V67.15H712.08V83.5H696.18V133H675.18V83.5H664.98V67.15H675.18V38.65ZM749.364 134.35C743.964 134.35 738.914 133.4 734.214 131.5C729.614 129.6 725.714 126.95 722.514 123.55L731.214 112C734.414 114.9 737.364 117 740.064 118.3C742.864 119.5 745.364 120.1 747.564 120.1C749.264 120.1 750.764 119.95 752.064 119.65C753.464 119.25 754.564 118.7 755.364 118C756.164 117.2 756.564 116.2 756.564 115C756.564 113.3 755.864 111.95 754.464 110.95C753.164 109.95 751.464 109.15 749.364 108.55C747.264 107.85 745.014 107.15 742.614 106.45C736.614 104.55 732.264 101.8 729.564 98.2C726.964 94.5 725.664 90.5 725.664 86.2C725.664 82.9 726.514 79.6 728.214 76.3C730.014 72.9 732.814 70.1 736.614 67.9C740.514 65.6 745.514 64.45 751.614 64.45C757.114 64.45 761.764 65 765.564 66.1C769.364 67.2 772.964 69 776.364 71.5L768.414 83.8C766.514 82.3 764.364 81.05 761.964 80.05C759.664 78.95 757.514 78.35 755.514 78.25C753.714 78.15 752.164 78.35 750.864 78.85C749.664 79.35 748.714 80 748.014 80.8C747.314 81.6 746.964 82.45 746.964 83.35C746.864 85.25 747.564 86.75 749.064 87.85C750.664 88.95 752.664 89.8 755.064 90.4C757.464 91 759.814 91.7 762.114 92.5C765.314 93.5 768.064 94.85 770.364 96.55C772.664 98.25 774.414 100.3 775.614 102.7C776.914 105 777.564 107.8 777.564 111.1C777.564 115.1 776.514 118.9 774.414 122.5C772.414 126 769.314 128.85 765.114 131.05C761.014 133.25 755.764 134.35 749.364 134.35Z" fill="white"/>
<defs>
<clipPath id="clip0_596_5">
<rect x="18" y="5" width="180" height="180" rx="90" fill="white"/>
</clipPath>
</defs>
</svg>
